<svg id="Layer_1" xmlns="http://www.w3.org/2000/svg" viewBox="0 0 256 218"><style>.st0{fill:#55565a}.st1{fill:#fff}.st2{fill:#cf0a2c}.st3{fill:none}</style><path class="st1" d="M128 13.8h-17.7c-53.9 0-97.7 43.4-97.7 96.7 0 53.3 43.8 96.7 97.7 96.7h35.5c53.8 0 97.7-43.4 97.7-96.7 0-53.3-43.8-96.7-97.7-96.7H128"/><path class="st2" d="M146.5 199.4c-4 0-8-.3-12-.8 38.5-10.8 66.7-46.1 66.7-88s-28.2-77.2-66.7-88c4-.5 8-.8 12-.8 48.8 0 88.6 39.9 88.6 88.9s-39.7 88.7-88.6 88.7m-91.6-88.9c0-44.2 31.4-81.1 73.2-89.6v179.2c-41.8-8.5-73.2-45.4-73.2-89.6m91.6-91.4c-6.1 0-12.5.6-18.5 1.8-5.9-1.2-12-1.8-18.3-1.8-50.5 0-91.4 40.9-91.4 91.4 0 50.5 40.9 91.4 91.4 91.4 6.3 0 12.4-.6 18.3-1.8 6 1.2 12.3 1.8 18.5 1.8 50.3 0 91.2-41 91.2-91.4 0-50.4-40.9-91.4-91.2-91.4"/></svg>
